# xmcd
# Copyright (C) 1995-1998 Ti Kan
#
# Track frame offsets:
#       150
#       16516
#       30106
#       49375
#       62388
#       75376
#       91944
#       121031
#       137102
#       149747
#       163573
#       182467
#
# Disc length: 2648 seconds
#
# Revision: 0
# Processed by: cddbd v1.5.2PL0 Copyright (c) Steve Scherf et al.
# Submitted via: CD-Import v1.0
#
DISCID=870a560c
DTITLE=Rathole - Burst Out
DYEAR=09
DGENRE=
TTITLE0=Lost
TTITLE1=Doctor Love
TTITLE2=Come On Baby
TTITLE3=Hellcat
TTITLE4=Jimmy's Blues
TTITLE5=I Can Teach You
TTITLE6=Tonight
TTITLE7=Sleeping With The Band
TTITLE8=Shock Your Mama
TTITLE9=Whatever
TTITLE10=Fife Nights In Prague
TTITLE11=Take You Home
EXTD=
EXTT0=
EXTT1=
EXTT2=
EXTT3=
EXTT4=
EXTT5=
EXTT6=
EXTT7=
EXTT8=
EXTT9=
EXTT10=
EXTT11=
PLAYORDER=
